# xmcd
#
# Track frame offsets:
#	182
#	23160
#	36632
#	57787
#	71650
#	83012
#	106955
#	133675
#	151167
#	172205
#	189605
#
# Disc length: 2753 seconds
# Revision: 2
# Processed by: cddbd v1.5.2PL0 Copyright (c) Steve Scherf et al.
# Submitted via: dBpowerAMP V12.0
#
DISCID=950abf0b
DTITLE=Livin' Blues - The Early Blues Sessions
DYEAR=1972
DGENRE=Blues
TTITLE0=One Night Boy
TTITLE1=Rock Me Baby
TTITLE2=Lonesome Road
TTITLE3=Born In Chicago
TTITLE4=Choice
TTITLE5=Selection
TTITLE6=I Don't Know
TTITLE7=Statement
TTITLE8=Polisch Blues
TTITLE9=Going Down Slow
TTITLE10=You Don't Know How Much I Love You
EXTD=
EXTT0=
EXTT1=
EXTT2=
EXTT3=
EXTT4=
EXTT5=
EXTT6=
EXTT7=
EXTT8=
EXTT9=
EXTT10=
PLAYORDER=
